<svg width="96" height="45" viewBox="0 0 96 45" fill="none" xmlns="http://www.w3.org/2000/svg">
<path d="M3.14965 34.5077C2.44069 34.5077 1.8242 34.2482 1.30018 33.7293C0.776168 33.2104 0.51416 32.6 0.51416 31.898V3.69463C0.51416 2.9926 0.776168 2.38214 1.30018 1.86325C1.8242 1.34436 2.44069 1.08491 3.14965 1.08491H5.41525C7.17225 1.08491 8.45147 1.84799 9.2529 3.37414L18.9626 21.5506C18.9626 21.5812 18.978 21.5964 19.0089 21.5964C19.0397 21.5964 19.0551 21.5812 19.0551 21.5506V3.69463C19.0551 2.9926 19.3171 2.38214 19.8411 1.86325C20.3651 1.34436 20.9816 1.08491 21.6906 1.08491H23.9562C24.6651 1.08491 25.2816 1.34436 25.8056 1.86325C26.3297 2.38214 26.5917 2.9926 26.5917 3.69463V31.898C26.5917 32.6 26.3297 33.2104 25.8056 33.7293C25.2816 34.2482 24.6651 34.5077 23.9562 34.5077H21.6906C19.9336 34.5077 18.6544 33.7446 17.8529 32.2184L8.14322 14.042C8.14322 14.0114 8.12781 13.9962 8.09698 13.9962C8.06616 13.9962 8.05075 14.0114 8.05075 14.042V31.898C8.05075 32.6 7.78874 33.2104 7.26472 33.7293C6.74071 34.2482 6.12422 34.5077 5.41525 34.5077H3.14965ZM39.8533 23.6109C36.0927 23.6109 34.2125 24.7556 34.2125 27.0448C34.2125 27.8689 34.459 28.5252 34.9522 29.0135C35.4454 29.4714 36.1082 29.7003 36.9404 29.7003C38.42 29.7003 39.6222 29.2424 40.5469 28.3268C41.4716 27.3805 41.934 26.1291 41.934 24.5724V24.023C41.934 23.7483 41.7953 23.6109 41.5179 23.6109H39.8533ZM34.6748 34.9655C32.5479 34.9655 30.7909 34.294 29.4038 32.951C28.0476 31.5775 27.3694 29.8071 27.3694 27.64C27.3694 22.0848 31.5307 19.3072 39.8533 19.3072H41.5179C41.7953 19.3072 41.934 19.1851 41.934 18.9409V18.712C41.934 17.5521 41.6257 16.7127 41.0093 16.1938C40.4236 15.6749 39.4218 15.4155 38.0039 15.4155C36.1236 15.4155 33.8734 15.7055 31.2533 16.2854C30.606 16.4075 30.0203 16.2701 29.4963 15.8733C29.0031 15.4765 28.7565 14.9577 28.7565 14.3167V14.2251C28.7565 13.462 28.9877 12.7753 29.4501 12.1648C29.9433 11.5238 30.5597 11.1423 31.2995 11.0202C34.0121 10.5013 36.3548 10.2418 38.3275 10.2418C42.3655 10.2418 45.2169 10.9591 46.8814 12.3937C48.5768 13.8283 49.4244 16.2091 49.4244 19.5361V31.898C49.4244 32.6 49.1624 33.2104 48.6384 33.7293C48.1144 34.2482 47.4979 34.5077 46.7889 34.5077H45.0781C44.3383 34.5077 43.7064 34.2635 43.1824 33.7751C42.6584 33.2562 42.3809 32.6305 42.3501 31.898V31.3943C42.3501 31.3638 42.3347 31.3485 42.3039 31.3485C42.2422 31.3485 42.2114 31.3638 42.2114 31.3943C40.2695 33.7751 37.7573 34.9655 34.6748 34.9655ZM54.4691 34.5077C53.7601 34.5077 53.1436 34.2482 52.6196 33.7293C52.0956 33.2104 51.8336 32.6 51.8336 31.898V13.3094C51.8336 12.6074 52.0956 11.9969 52.6196 11.478C53.1436 10.9591 53.7601 10.6997 54.4691 10.6997H57.0583C57.7673 10.6997 58.3838 10.9591 58.9078 11.478C59.4318 11.9969 59.6938 12.6074 59.6938 13.3094V31.898C59.6938 32.6 59.4318 33.2104 58.9078 33.7293C58.3838 34.2482 57.7673 34.5077 57.0583 34.5077H54.4691ZM54.4691 6.12122C53.7601 6.12122 53.1436 5.86177 52.6196 5.34288C52.0956 4.82399 51.8336 4.21353 51.8336 3.5115V2.77894C51.8336 2.07691 52.0956 1.46645 52.6196 0.947558C53.1436 0.428666 53.7601 0.16922 54.4691 0.16922H57.0583C57.7673 0.16922 58.3838 0.428666 58.9078 0.947558C59.4318 1.46645 59.6938 2.07691 59.6938 2.77894V3.5115C59.6938 4.21353 59.4318 4.82399 58.9078 5.34288C58.3838 5.86177 57.7673 6.12122 57.0583 6.12122H54.4691ZM65.1969 34.5077C64.488 34.5077 63.8715 34.2482 63.3475 33.7293C62.8234 33.2104 62.5614 32.6 62.5614 31.898V2.77894C62.5614 2.07691 62.8234 1.46645 63.3475 0.947558C63.8715 0.428666 64.488 0.16922 65.1969 0.16922H67.7862C68.4951 0.16922 69.1116 0.428666 69.6357 0.947558C70.1597 1.46645 70.4217 2.07691 70.4217 2.77894V31.898C70.4217 32.6 70.1597 33.2104 69.6357 33.7293C69.1116 34.2482 68.4951 34.5077 67.7862 34.5077H65.1969ZM79.4643 34.1414L71.6503 13.1263C71.4037 12.5463 71.4654 11.9969 71.8353 11.478C72.2052 10.9591 72.7138 10.6997 73.3611 10.6997H76.274C77.0138 10.6997 77.6919 10.9439 78.3084 11.4322C78.9249 11.8901 79.3256 12.4853 79.5106 13.2178L83.0246 27.4569C83.0246 27.4874 83.04 27.5026 83.0708 27.5026C83.1016 27.5026 83.117 27.4874 83.117 27.4569L87.3246 13.172C87.5095 12.4395 87.9102 11.8443 88.5267 11.3865C89.174 10.9286 89.8984 10.6997 90.6999 10.6997H93.2429C93.8594 10.6997 94.3526 10.9591 94.7225 11.478C95.0923 11.9969 95.1694 12.5463 94.9536 13.1263L84.0418 42.1537C83.7644 42.8863 83.302 43.4662 82.6547 43.8935C82.0074 44.3514 81.2984 44.5803 80.5278 44.5803H77.9848C77.3374 44.5803 76.8443 44.3208 76.5052 43.802C76.1661 43.3136 76.1199 42.7794 76.3665 42.1995L79.4643 34.874C79.4952 34.7519 79.5106 34.6298 79.5106 34.5077C79.5106 34.3856 79.4952 34.2635 79.4643 34.1414Z" fill="#333333"/>
<path d="M94.1068 10.9334L93.3267 12.916L94.8154 13.4904L95.5956 11.5079L94.1068 10.9334Z" fill="#333333"/>
</svg>
